<svg height="512pt" viewBox="-2 0 512 512.00101" width="512pt" xmlns="http://www.w3.org/2000/svg"><path d="m479.425781 43.402344v36.8125c0 19.769531-16.03125 35.800781-35.800781 35.800781h-242.851562c-19.769532 0-35.796876-16.03125-35.796876-35.800781v-36.8125c0-19.769532 16.027344-35.800782 35.796876-35.800782h242.851562c19.769531 0 35.800781 16.03125 35.800781 35.800782zm0 0" fill="#cbcbcb"/><path d="m479.425781 43.402344v36.8125c0 19.769531-16.03125 35.800781-35.800781 35.800781h-183.398438c-19.769531 0-35.796874-16.03125-35.796874-35.800781v-36.8125c0-19.769532 16.027343-35.800782 35.796874-35.800782h183.398438c19.769531 0 35.800781 16.03125 35.800781 35.800782zm0 0" fill="#e5e5e5"/><path d="m501.496094 221.042969v214.441406c0 38.058594-30.851563 68.910156-68.910156 68.910156h-220.769532c-38.058594 0-68.914062-30.851562-68.914062-68.910156v-214.441406c0-38.0625 30.855468-68.925781 68.914062-68.925781h220.769532c38.058593 0 68.910156 30.863281 68.910156 68.925781zm0 0" fill="#5d895d"/><path d="m501.496094 221.042969v214.441406c0 38.058594-30.851563 68.910156-68.910156 68.910156h-151.359376c-38.0625 0-68.914062-30.851562-68.914062-68.910156v-214.441406c0-38.0625 30.851562-68.925781 68.914062-68.925781h151.359376c38.058593 0 68.910156 30.863281 68.910156 68.925781zm0 0" fill="#79a879"/><path d="m443.625 134.0625c0 4.988281-2.015625 9.5-5.292969 12.773438-3.261719 3.265624-7.773437 5.28125-12.761719 5.28125h-206.738281c-9.976562 0-18.058593-8.078126-18.058593-18.054688 0-4.988281 2.019531-9.488281 5.285156-12.765625 3.273437-3.265625 7.785156-5.28125 12.773437-5.28125h206.738281c9.976563 0 18.054688 8.082031 18.054688 18.046875zm0 0" fill="#5d895d"/><path d="m443.625 134.0625c0 4.988281-2.015625 9.5-5.292969 12.773438-3.261719 3.265624-7.773437 5.28125-12.761719 5.28125h-139.488281c-9.964843 0-18.058593-8.078126-18.058593-18.054688 0-4.988281 2.027343-9.488281 5.292968-12.765625 3.265625-3.265625 7.789063-5.28125 12.765625-5.28125h139.488281c9.976563 0 18.054688 8.082031 18.054688 18.046875zm0 0" fill="#79a879"/><path d="m430.542969 408.070312c-72.230469 5.195313-144.460938 5.195313-216.691407 0-12.191406-.878906-22.128906-10.054687-24.167968-22.105468-6.523438-38.46875-6.523438-76.9375 0-115.410156 2.039062-12.050782 11.976562-21.226563 24.167968-22.101563 72.230469-5.199219 144.460938-5.199219 216.691407 0 12.191406.875 22.128906 10.050781 24.171875 22.101563 6.523437 38.472656 6.523437 76.941406 0 115.410156-2.042969 12.050781-11.976563 21.226562-24.171875 22.105468zm0 0" fill="#e5e5e5"/><path d="m212.3125 248.617188v159.285156c-11.488281-1.488282-20.683594-10.402344-22.628906-21.9375-6.519532-38.46875-6.519532-76.941406 0-115.410156 1.945312-11.535157 11.140625-20.449219 22.628906-21.9375zm0 0" fill="#cbcbcb"/><path d="m197.222656 452.871094c0 28.460937-23.074218 51.523437-51.523437 51.523437h-75.261719c-14.222656 0-27.109375-5.765625-36.4375-15.085937-9.316406-9.328125-15.085938-22.210938-15.085938-36.4375 0-5.292969.800782-10.390625 2.28125-15.199219 6.480469-21.046875 26.078126-36.335937 49.242188-36.335937h75.261719c23.15625 0 42.753906 15.289062 49.242187 36.335937 1.480469 4.808594 2.28125 9.90625 2.28125 15.199219zm0 0" fill="#cbcbcb"/><path d="m194.941406 437.671875c-6.488281 21.050781-26.085937 36.339844-49.242187 36.339844h-75.261719c-14.222656 0-27.109375-5.769531-36.4375-15.097657-5.847656-5.859374-10.300781-13.121093-12.804688-21.242187 6.480469-21.046875 26.078126-36.335937 49.242188-36.335937h75.261719c23.15625 0 42.753906 15.289062 49.242187 36.335937zm0 0" fill="#e5e5e5"/><path d="m148.871094 363.21875c-20.125-20.121094-52.75-20.121094-72.871094 0l-53.214844 53.214844c-20.121094 20.121094-20.121094 52.746094 0 72.871094 20.125 20.121093 52.75 20.121093 72.871094 0l53.214844-53.214844c20.121094-20.121094 20.121094-52.746094 0-72.871094zm0 0" fill="#4297d0"/><path d="m157.664062 374.929688c-19.566406-10.726563-44.609374-7.808594-61.1875 8.769531l-53.207031 53.207031c-16.566406 16.566406-19.496093 41.601562-8.789062 61.167969-4.199219-2.292969-8.140625-5.222657-11.691407-8.769531-20.125-20.125-20.125-52.753907 0-72.878907l53.210938-53.207031c20.125-20.125 52.75-20.125 72.875 0 3.558594 3.558594 6.488281 7.503906 8.789062 11.710938zm0 0" fill="#1876a9"/><path d="m122.265625 462.691406-26.605469 26.613282c-10.054687 10.054687-23.246094 15.085937-36.4375 15.085937-13.1875 0-26.378906-5.03125-36.4375-15.085937-20.125-20.125-20.125-52.753907 0-72.878907l26.605469-26.601562zm0 0" fill="#f64f44"/><path d="m69.871094 410.304688-20.484375-20.480469-26.601563 26.601562c-20.125 20.125-20.125 52.753907 0 72.878907 3.550782 3.546874 7.496094 6.460937 11.6875 8.753906-10.699218-19.5625-7.765625-44.589844 8.796875-61.152344zm0 0" fill="#d22e29"/><path d="m448.210938 146.125c1.925781-3.597656 3.019531-7.703125 3.019531-12.058594 0-3.847656-.855469-7.496094-2.382813-10.777344 21.476563-2.589843 38.179688-20.914062 38.179688-43.078124v-36.808594c0-23.929688-19.46875-43.402344-43.402344-43.402344h-31.976562c-4.199219 0-7.605469 3.40625-7.605469 7.605469s3.40625 7.601562 7.605469 7.601562h31.976562c15.546875 0 28.195312 12.648438 28.195312 28.195313v36.808594c0 15.546874-12.648437 28.195312-28.195312 28.195312h-242.851562c-15.546876 0-28.195313-12.648438-28.195313-28.195312v-36.808594c0-15.546875 12.648437-28.195313 28.195313-28.195313h180.457031c4.203125 0 7.605469-3.402343 7.605469-7.601562s-3.402344-7.605469-7.605469-7.605469h-180.457031c-23.933594 0-43.40625 19.472656-43.40625 43.402344v36.808594c0 22.164062 16.703124 40.488281 38.183593 43.078124-1.527343 3.28125-2.382812 6.929688-2.382812 10.777344 0 4.355469 1.09375 8.460938 3.019531 12.0625-34.726562 7.234375-60.890625 38.074219-60.890625 74.914063v124.09375c-21.484375-8.972657-47.222656-4.746094-64.679687 12.703125l-42.449219 42.460937c-2.96875 2.96875-2.96875 7.785157 0 10.753907 2.972656 2.96875 7.785156 2.96875 10.753906 0l10.46875-10.472657 62.117187 62.117188-21.230468 21.226562c-8.296875 8.296875-19.328125 12.867188-31.0625 12.867188-11.722656 0-22.753906-4.570313-31.050782-12.871094-13.554687-13.546875-16.734374-34.800781-7.730468-51.695313 1.976562-3.703124.574218-8.308593-3.132813-10.285156-3.703125-1.976562-8.3125-.574218-10.285156 3.132813-12.320313 23.105469-8.140625 51.078125 10.394531 69.601562 11.171875 11.171875 26.019532 17.324219 41.804688 17.324219 1.917968 0 3.820312-.09375 5.707031-.273438 1.820313.171876 3.667969.273438 5.515625.273438h75.261719c11.257812 0 21.792969-3.164062 30.761719-8.652344 10.882812 5.671875 23.007812 8.652344 35.363281 8.652344h220.757812c42.191407 0 76.515625-34.324219 76.515625-76.515625v-214.441406c0-36.84375-26.164062-67.679688-60.886718-74.917969zm-22.640626-22.507812c5.765626 0 10.453126 4.6875 10.453126 10.449218 0 5.738282-4.648438 10.40625-10.375 10.449219h-206.898438c-5.726562-.042969-10.375-4.710937-10.375-10.449219 0-5.761718 4.691406-10.449218 10.453125-10.449218zm-365.425781 266.207031 21.226563-21.230469c17.128906-17.121094 44.996094-17.117188 62.125 0 8.296875 8.296875 12.867187 19.328125 12.867187 31.0625 0 11.730469-4.570312 22.761719-12.867187 31.058594l-21.234375 21.230468zm38.65625 106.96875c.757813-.683594 1.503907-1.390625 2.230469-2.117188l26.59375-26.585937c.003906-.007813.007812-.011719.015625-.015625.003906-.003907.007813-.011719.011719-.015625l26.597656-26.589844c7.238281-7.238281 12.355469-16.03125 15.066406-25.617188 12.417969 7.964844 20.300782 21.910157 20.300782 37.019532 0 24.21875-19.703126 43.921875-43.921876 43.921875zm395.089844-61.308594c0 33.804687-27.503906 61.308594-61.308594 61.308594h-220.757812c-7.691407 0-15.269531-1.441407-22.355469-4.210938 9.539062-10.5 15.359375-24.4375 15.359375-39.710937 0-22.652344-13.164063-43.355469-33.257813-53.167969 0-.015625 0-.03125 0-.046875 0-15.796875-6.152343-30.644531-17.324218-41.816406-1.207032-1.207032-2.460938-2.335938-3.742188-3.414063v-133.382812c0-33.8125 27.507813-61.320313 61.320313-61.320313h220.757812c33.804688 0 61.308594 27.507813 61.308594 61.320313zm0 0"/><path d="m431.089844 240.867188c-72.253906-5.199219-145.527344-5.199219-217.78125 0-15.679688 1.128906-28.476563 12.816406-31.125 28.417968-6.632813 39.132813-6.632813 78.816406 0 117.949219 2.644531 15.605469 15.445312 27.289063 31.125 28.417969 36.128906 2.601562 72.507812 3.902344 108.890625 3.902344 36.382812 0 72.765625-1.300782 108.890625-3.902344 15.679687-1.128906 28.480468-12.8125 31.125-28.417969 6.632812-39.132813 6.632812-78.816406 0-117.949219-2.644532-15.601562-15.445313-27.289062-31.125-28.417968zm16.128906 143.824218c-1.46875 8.675782-8.550781 15.171875-17.21875 15.792969-71.53125 5.148437-144.070312 5.148437-215.601562 0-8.667969-.621094-15.75-7.117187-17.21875-15.792969-6.347657-37.445312-6.347657-75.417968 0-112.863281 1.46875-8.675781 8.550781-15.167969 17.21875-15.792969 35.765624-2.574218 71.785156-3.859375 107.800781-3.859375 36.019531 0 72.035156 1.285157 107.800781 3.859375 8.667969.625 15.75 7.117188 17.21875 15.792969 6.347656 37.445313 6.347656 75.417969 0 112.863281zm0 0"/><path d="m255.0625 300.851562c10.441406 0 10.9375 7.695313 11.125 10.589844.101562 2.980469 2.574219 4.554688 7.160156 4.554688 4.535156 0 7.160156-1.152344 7.160156-7.050782 0-12.371093-10.402343-20.683593-25.878906-20.683593-7.308594 0-13.429687 1.953125-17.691406 5.644531-4.929688 4.269531-7.429688 10.75-7.429688 19.261719v30.1875c0 8.515625 2.480469 14.996093 7.375 19.257812 4.238282 3.695313 10.335938 5.644531 17.636719 5.644531 15.542969 0 25.988281-8.660156 25.988281-21.550781 0-5.894531-2.667968-7.050781-7.269531-7.050781-4.421875 0-6.859375 1.574219-7.050781 4.554688-.285156 4.003906-.816406 11.460937-10.910156 11.460937-7.597656 0-11.449219-4.144531-11.449219-12.316406v-30.1875c-.003906-8.175781 3.777344-12.316407 11.234375-12.316407zm0 0"/><path d="m339.863281 293.90625c-4.347656-3.746094-10.453125-5.644531-18.148437-5.644531h-19.152344c-3.53125 0-6.296875 1.957031-6.296875 4.457031v70.4375c0 2.496094 2.765625 4.453125 6.296875 4.453125h19.152344c7.695312 0 13.800781-1.898437 18.148437-5.640625 4.914063-4.230469 7.402344-10.710938 7.402344-19.261719v-29.539062c0-8.554688-2.492187-15.035157-7.402344-19.261719zm-18.152343 61.117188h-11.125v-54.171876h11.128906c7.347656 0 11.230468 4.257813 11.230468 12.316407v29.539062c0 8.054688-3.882812 12.316407-11.234374 12.316407zm0 0"/><path d="m410.328125 300.851562c2.6875 0 4.5625-2.636718 4.5625-6.40625 0-2.976562-1.425781-6.183593-4.5625-6.183593h-38.519531c-4.324219 0-6.292969 2.367187-6.292969 4.5625v70.222656c0 2.195313 1.96875 4.5625 6.292969 4.5625h38.519531c3.136719 0 4.5625-3.207031 4.5625-6.1875 0-3.769531-1.875-6.402344-4.5625-6.402344h-30.492187v-21.496093h16.320312c2.265625 0 4.5625-1.902344 4.5625-5.535157 0-2.859375-1.566406-5.753906-4.5625-5.753906h-16.320312v-21.386719h30.492187zm0 0"/></svg>